# xmcd
#
# Track frame offsets:
#	150
#	16847
#	33439
#	49266
#	66382
#	82636
#	97696
#	113238
#	130680
#	145963
#	163173
#	181966
#	194516
#	209914
#	226938
#	241815
#
# Disc length: 3422 seconds
#
# Revision: 0
# Processed by: cddbd v1.5.1PL0 Copyright (c) Steve Scherf et al.
# Submitted via: EasyCDDAExtractor 8.0.1.1
#
DISCID=d60d5c10
DTITLE=Various Artist - Thats Hillbilly (Det beste av Norsk Country)
DYEAR=2005
DGENRE=Country
TTITLE0=Rune Rudberg - What About Now
TTITLE1=Ann Taylor - Heartache
TTITLE2=Åsmund Åmli Band - Stomp og Vatn
TTITLE3=Bigfoot - El Camino
TTITLE4=Too Far Gone - Zetor'n
TTITLE5=The Boots Band - Cadillac Drive
TTITLE6=Kirsti Carr - Like a Tiger
TTITLE7=Roy Lonhoiden - En fin kveld å leve
TTITLE8=Rune Rudberg - When You Smile
TTITLE9=Bettan - Together Again
TTITLE10=Crowtown - May and Me
TTITLE11=Åsmund Åmli Band - Påskerally på riksveg nr.9
TTITLE12=The Boots Band - Sugar and Pie
TTITLE13=Bigfoot - My Kind of Girl
TTITLE14=Kirsti Carr - On the Run
TTITLE15=Ann Taylor - Honky Tonk Angel
EXTD=
EXTT0=
EXTT1=
EXTT2=
EXTT3=
EXTT4=
EXTT5=
EXTT6=
EXTT7=
EXTT8=
EXTT9=
EXTT10=
EXTT11=
EXTT12=
EXTT13=
EXTT14=
EXTT15=
PLAYORDER=
